<mxfile host="app.diagrams.net" agent="Mozilla/5.0 (Windows NT 10.0; Win64; x64) AppleWebKit/537.36 (KHTML, like Gecko) Chrome/131.0.0.0 Safari/537.36 Edg/131.0.0.0" version="24.9.0">
  <diagram id="C5RBs43oDa-KdzZeNtuy" name="Page-1">
    <mxGraphModel dx="415" dy="227" grid="1" gridSize="10" guides="1" tooltips="1" connect="1" arrows="1" fold="1" page="1" pageScale="1" pageWidth="827" pageHeight="1169" math="0" shadow="0">
      <root>
        <mxCell id="WIyWlLk6GJQsqaUBKTNV-0" />
        <mxCell id="WIyWlLk6GJQsqaUBKTNV-1" parent="WIyWlLk6GJQsqaUBKTNV-0" />
        <mxCell id="q5MoAWhynA4X8tI6t1yL-24" style="edgeStyle=orthogonalEdgeStyle;rounded=0;orthogonalLoop=1;jettySize=auto;html=1;entryX=0.5;entryY=0;entryDx=0;entryDy=0;endArrow=block;endFill=0;fontSize=23;endSize=12;" parent="WIyWlLk6GJQsqaUBKTNV-1" source="q5MoAWhynA4X8tI6t1yL-13" target="q5MoAWhynA4X8tI6t1yL-17" edge="1">
          <mxGeometry relative="1" as="geometry" />
        </mxCell>
        <mxCell id="q5MoAWhynA4X8tI6t1yL-25" style="edgeStyle=orthogonalEdgeStyle;rounded=0;orthogonalLoop=1;jettySize=auto;html=1;exitX=0.681;exitY=1.125;exitDx=0;exitDy=0;entryX=0.5;entryY=0;entryDx=0;entryDy=0;endArrow=block;endFill=0;exitPerimeter=0;fontSize=23;endSize=12;" parent="WIyWlLk6GJQsqaUBKTNV-1" source="q5MoAWhynA4X8tI6t1yL-15" target="q5MoAWhynA4X8tI6t1yL-21" edge="1">
          <mxGeometry relative="1" as="geometry" />
        </mxCell>
        <mxCell id="q5MoAWhynA4X8tI6t1yL-13" value="Entity" style="swimlane;fontStyle=3;align=center;verticalAlign=top;childLayout=stackLayout;horizontal=1;startSize=26;horizontalStack=0;resizeParent=1;resizeParentMax=0;resizeLast=0;collapsible=1;marginBottom=0;whiteSpace=wrap;html=1;fontSize=23;" parent="WIyWlLk6GJQsqaUBKTNV-1" vertex="1">
          <mxGeometry x="100" y="70" width="114" height="34" as="geometry" />
        </mxCell>
        <mxCell id="q5MoAWhynA4X8tI6t1yL-15" value="" style="line;strokeWidth=1;fillColor=none;align=left;verticalAlign=middle;spacingTop=-1;spacingLeft=3;spacingRight=3;rotatable=0;labelPosition=right;points=[];portConstraint=eastwest;strokeColor=inherit;fontSize=23;" parent="q5MoAWhynA4X8tI6t1yL-13" vertex="1">
          <mxGeometry y="26" width="114" height="8" as="geometry" />
        </mxCell>
        <mxCell id="q5MoAWhynA4X8tI6t1yL-17" value="Player" style="swimlane;fontStyle=1;align=center;verticalAlign=top;childLayout=stackLayout;horizontal=1;startSize=40;horizontalStack=0;resizeParent=1;resizeParentMax=0;resizeLast=0;collapsible=1;marginBottom=0;whiteSpace=wrap;html=1;fontSize=23;" parent="WIyWlLk6GJQsqaUBKTNV-1" vertex="1">
          <mxGeometry x="20" y="200" width="130" height="142" as="geometry" />
        </mxCell>
        <mxCell id="q5MoAWhynA4X8tI6t1yL-18" value="+ x: int&lt;div&gt;+ y: int&lt;/div&gt;&lt;div&gt;+ z: int&lt;/div&gt;&lt;div&gt;+ name: String&lt;/div&gt;" style="text;strokeColor=none;fillColor=none;align=left;verticalAlign=top;spacingLeft=4;spacingRight=4;overflow=hidden;rotatable=0;points=[[0,0.5],[1,0.5]];portConstraint=eastwest;whiteSpace=wrap;html=1;fontSize=23;" parent="q5MoAWhynA4X8tI6t1yL-17" vertex="1">
          <mxGeometry y="40" width="130" height="94" as="geometry" />
        </mxCell>
        <mxCell id="q5MoAWhynA4X8tI6t1yL-19" value="" style="line;strokeWidth=1;fillColor=none;align=left;verticalAlign=middle;spacingTop=-1;spacingLeft=3;spacingRight=3;rotatable=0;labelPosition=right;points=[];portConstraint=eastwest;strokeColor=inherit;fontSize=23;" parent="q5MoAWhynA4X8tI6t1yL-17" vertex="1">
          <mxGeometry y="134" width="130" height="8" as="geometry" />
        </mxCell>
        <mxCell id="q5MoAWhynA4X8tI6t1yL-21" value="NPC" style="swimlane;fontStyle=1;align=center;verticalAlign=top;childLayout=stackLayout;horizontal=1;startSize=40;horizontalStack=0;resizeParent=1;resizeParentMax=0;resizeLast=0;collapsible=1;marginBottom=0;whiteSpace=wrap;html=1;fontSize=23;" parent="WIyWlLk6GJQsqaUBKTNV-1" vertex="1">
          <mxGeometry x="200" y="200" width="130" height="142" as="geometry" />
        </mxCell>
        <mxCell id="q5MoAWhynA4X8tI6t1yL-22" value="+ x: int&lt;div&gt;+ y: int&lt;/div&gt;&lt;div&gt;+ z: int&lt;/div&gt;&lt;div&gt;+ name: String&lt;/div&gt;" style="text;strokeColor=none;fillColor=none;align=left;verticalAlign=top;spacingLeft=4;spacingRight=4;overflow=hidden;rotatable=0;points=[[0,0.5],[1,0.5]];portConstraint=eastwest;whiteSpace=wrap;html=1;fontSize=23;" parent="q5MoAWhynA4X8tI6t1yL-21" vertex="1">
          <mxGeometry y="40" width="130" height="94" as="geometry" />
        </mxCell>
        <mxCell id="q5MoAWhynA4X8tI6t1yL-23" value="" style="line;strokeWidth=1;fillColor=none;align=left;verticalAlign=middle;spacingTop=-1;spacingLeft=3;spacingRight=3;rotatable=0;labelPosition=right;points=[];portConstraint=eastwest;strokeColor=inherit;fontSize=23;" parent="q5MoAWhynA4X8tI6t1yL-21" vertex="1">
          <mxGeometry y="134" width="130" height="8" as="geometry" />
        </mxCell>
        <mxCell id="q5MoAWhynA4X8tI6t1yL-26" style="edgeStyle=orthogonalEdgeStyle;rounded=0;orthogonalLoop=1;jettySize=auto;html=1;entryX=0.5;entryY=0;entryDx=0;entryDy=0;endArrow=block;endFill=0;exitX=0.25;exitY=1;exitDx=0;exitDy=0;fontSize=23;endSize=12;" parent="WIyWlLk6GJQsqaUBKTNV-1" source="q5MoAWhynA4X8tI6t1yL-39" target="q5MoAWhynA4X8tI6t1yL-30" edge="1">
          <mxGeometry relative="1" as="geometry">
            <mxPoint x="550" y="230" as="sourcePoint" />
            <Array as="points">
              <mxPoint x="123" y="592" />
              <mxPoint x="78" y="592" />
            </Array>
          </mxGeometry>
        </mxCell>
        <mxCell id="q5MoAWhynA4X8tI6t1yL-27" style="edgeStyle=orthogonalEdgeStyle;rounded=0;orthogonalLoop=1;jettySize=auto;html=1;exitX=0.5;exitY=1;exitDx=0;exitDy=0;entryX=0.5;entryY=0;entryDx=0;entryDy=0;endArrow=block;endFill=0;fontSize=23;endSize=12;" parent="WIyWlLk6GJQsqaUBKTNV-1" source="q5MoAWhynA4X8tI6t1yL-39" target="q5MoAWhynA4X8tI6t1yL-33" edge="1">
          <mxGeometry relative="1" as="geometry">
            <mxPoint x="560.25" y="205" as="sourcePoint" />
          </mxGeometry>
        </mxCell>
        <mxCell id="q5MoAWhynA4X8tI6t1yL-30" value="Player" style="swimlane;fontStyle=1;align=center;verticalAlign=top;childLayout=stackLayout;horizontal=1;startSize=26;horizontalStack=0;resizeParent=1;resizeParentMax=0;resizeLast=0;collapsible=1;marginBottom=0;whiteSpace=wrap;html=1;fontSize=23;" parent="WIyWlLk6GJQsqaUBKTNV-1" vertex="1">
          <mxGeometry x="40" y="620" width="76" height="34" as="geometry" />
        </mxCell>
        <mxCell id="q5MoAWhynA4X8tI6t1yL-32" value="" style="line;strokeWidth=1;fillColor=none;align=left;verticalAlign=middle;spacingTop=-1;spacingLeft=3;spacingRight=3;rotatable=0;labelPosition=right;points=[];portConstraint=eastwest;strokeColor=inherit;fontSize=23;" parent="q5MoAWhynA4X8tI6t1yL-30" vertex="1">
          <mxGeometry y="26" width="76" height="8" as="geometry" />
        </mxCell>
        <mxCell id="q5MoAWhynA4X8tI6t1yL-33" value="NPC" style="swimlane;fontStyle=1;align=center;verticalAlign=top;childLayout=stackLayout;horizontal=1;startSize=26;horizontalStack=0;resizeParent=1;resizeParentMax=0;resizeLast=0;collapsible=1;marginBottom=0;whiteSpace=wrap;html=1;fontSize=23;" parent="WIyWlLk6GJQsqaUBKTNV-1" vertex="1">
          <mxGeometry x="150" y="620" width="90" height="34" as="geometry" />
        </mxCell>
        <mxCell id="q5MoAWhynA4X8tI6t1yL-35" value="" style="line;strokeWidth=1;fillColor=none;align=left;verticalAlign=middle;spacingTop=-1;spacingLeft=3;spacingRight=3;rotatable=0;labelPosition=right;points=[];portConstraint=eastwest;strokeColor=inherit;fontSize=23;" parent="q5MoAWhynA4X8tI6t1yL-33" vertex="1">
          <mxGeometry y="26" width="90" height="8" as="geometry" />
        </mxCell>
        <mxCell id="q5MoAWhynA4X8tI6t1yL-39" value="Entity" style="swimlane;fontStyle=3;align=center;verticalAlign=top;childLayout=stackLayout;horizontal=1;startSize=40;horizontalStack=0;resizeParent=1;resizeParentMax=0;resizeLast=0;collapsible=1;marginBottom=0;whiteSpace=wrap;html=1;fontSize=23;" parent="WIyWlLk6GJQsqaUBKTNV-1" vertex="1">
          <mxGeometry x="100" y="430" width="90" height="142" as="geometry" />
        </mxCell>
        <mxCell id="q5MoAWhynA4X8tI6t1yL-40" value="+ x: int&lt;div&gt;+ y: int&lt;/div&gt;&lt;div&gt;+ z: int&lt;/div&gt;&lt;div&gt;name: String&lt;/div&gt;" style="text;strokeColor=none;fillColor=none;align=left;verticalAlign=top;spacingLeft=4;spacingRight=4;overflow=hidden;rotatable=0;points=[[0,0.5],[1,0.5]];portConstraint=eastwest;whiteSpace=wrap;html=1;fontSize=23;" parent="q5MoAWhynA4X8tI6t1yL-39" vertex="1">
          <mxGeometry y="40" width="90" height="94" as="geometry" />
        </mxCell>
        <mxCell id="q5MoAWhynA4X8tI6t1yL-41" value="" style="line;strokeWidth=1;fillColor=none;align=left;verticalAlign=middle;spacingTop=-1;spacingLeft=3;spacingRight=3;rotatable=0;labelPosition=right;points=[];portConstraint=eastwest;strokeColor=inherit;fontSize=23;" parent="q5MoAWhynA4X8tI6t1yL-39" vertex="1">
          <mxGeometry y="134" width="90" height="8" as="geometry" />
        </mxCell>
        <mxCell id="q5MoAWhynA4X8tI6t1yL-43" value="" style="shape=flexArrow;endArrow=classic;html=1;rounded=0;entryX=0.5;entryY=0;entryDx=0;entryDy=0;fontSize=23;" parent="WIyWlLk6GJQsqaUBKTNV-1" target="q5MoAWhynA4X8tI6t1yL-39" edge="1">
          <mxGeometry width="50" height="50" relative="1" as="geometry">
            <mxPoint x="145" y="350" as="sourcePoint" />
            <mxPoint x="170" y="342" as="targetPoint" />
          </mxGeometry>
        </mxCell>
        <mxCell id="q5MoAWhynA4X8tI6t1yL-44" value="refactored to" style="edgeLabel;html=1;align=center;verticalAlign=middle;resizable=0;points=[];fontSize=23;" parent="q5MoAWhynA4X8tI6t1yL-43" vertex="1" connectable="0">
          <mxGeometry x="-0.392" y="-4" relative="1" as="geometry">
            <mxPoint x="89" y="16" as="offset" />
          </mxGeometry>
        </mxCell>
      </root>
    </mxGraphModel>
  </diagram>
</mxfile>
